<svg width="150" height="150" viewBox="0 0 150 150" fill="none" xmlns="http://www.w3.org/2000/svg">
<path d="M76.4416 134C66.8563 134 58.3227 132.698 50.8407 130.095C43.3587 127.522 37.0336 123.737 31.8654 118.739C26.6971 113.772 22.7608 107.698 20.0565 100.517C17.3522 93.3351 16 85.1662 16 76.0099C16 66.9733 17.3522 58.7744 20.0565 51.4135C22.7909 44.0525 26.7722 37.7388 32.0006 32.4724C37.2289 27.1761 43.6142 23.1066 51.1562 20.264C58.7283 17.4213 67.3521 16 77.0276 16C85.9819 16 93.9747 17.3016 101.006 19.9049C108.067 22.5082 114.047 26.2186 118.945 31.0361C123.872 35.8238 127.613 41.524 130.168 48.1369C132.752 54.7199 134.029 62.0061 133.999 69.9954C134.029 75.5012 133.548 80.5581 132.556 85.1662C131.565 89.7743 130.002 93.7989 127.869 97.24C125.765 100.651 123.001 103.359 119.576 105.364C116.15 107.339 112.003 108.461 107.136 108.73C103.65 109 100.826 108.745 98.6622 107.967C96.4987 107.189 94.8461 106.037 93.7042 104.511C92.5925 102.955 91.8713 101.145 91.5408 99.0803H90.9999C90.2788 100.876 88.8665 102.506 86.7631 103.973C84.6598 105.409 82.0907 106.531 79.0558 107.339C76.051 108.117 72.8509 108.401 69.4555 108.192C65.9098 107.982 62.5444 107.159 59.3593 105.723C56.2043 104.287 53.3948 102.207 50.9309 99.4842C48.497 96.7613 46.5739 93.395 45.1616 89.3853C43.7794 85.3757 43.0733 80.7377 43.0432 75.4713C43.0733 70.2647 43.8095 65.7315 45.2518 61.8714C46.7241 58.0114 48.6622 54.7648 51.0661 52.1316C53.5 49.4984 56.2043 47.4338 59.179 45.9376C62.1538 44.4415 65.1436 43.484 68.1484 43.065C71.5438 42.5564 74.7589 42.5564 77.7938 43.065C80.8287 43.5737 83.3827 44.3966 85.456 45.5337C87.5594 46.6707 88.8665 47.8976 89.3773 49.2142H90.0083V44.1871H104.116V87.9939C104.146 90.0586 104.612 91.6594 105.513 92.7965C106.415 93.9336 107.632 94.5021 109.164 94.5021C111.237 94.5021 112.965 93.5895 114.347 91.7642C115.759 89.9389 116.811 87.1411 117.502 83.3709C118.223 79.6006 118.584 74.798 118.584 68.9631C118.584 63.3376 117.833 58.4004 116.33 54.1514C114.858 49.8725 112.785 46.2368 110.11 43.2446C107.466 40.2224 104.386 37.7687 100.871 35.8836C97.3551 33.9985 93.539 32.622 89.4224 31.7543C85.3359 30.8865 81.1291 30.4526 76.8022 30.4526C69.3202 30.4526 62.7848 31.5897 57.1959 33.8638C51.6069 36.108 46.9495 39.2649 43.2235 43.3344C39.4976 47.4038 36.7031 52.1765 34.8401 57.6523C33.0072 63.0983 32.0757 69.0379 32.0457 75.4713C32.0757 82.563 33.0673 88.8467 35.0204 94.3226C37.0036 99.7685 39.9182 104.347 43.7644 108.057C47.6105 111.767 52.3581 114.58 58.0072 116.495C63.6562 118.41 70.1466 119.368 77.4783 119.368C80.9338 119.368 84.3142 119.113 87.6195 118.605C90.9248 118.126 93.9146 117.528 96.5888 116.809C99.2631 116.121 101.412 115.448 103.034 114.79L107.496 127.806C105.603 128.883 103.034 129.886 99.789 130.813C96.5738 131.771 92.938 132.534 88.8815 133.102C84.8551 133.701 80.7085 134 76.4416 134ZM74.3683 93.4249C78.0342 93.4249 80.9488 92.7217 83.1123 91.3153C85.3058 89.909 86.8683 87.8293 87.7998 85.0765C88.7613 82.2937 89.2121 78.8675 89.152 74.798C89.1219 71.2073 88.6562 68.1702 87.7547 65.6866C86.8833 63.1731 85.3659 61.273 83.2024 59.9863C81.069 58.6697 78.0943 58.0114 74.2782 58.0114C70.9428 58.0114 68.1033 58.7146 65.7596 60.121C63.4459 61.5273 61.673 63.5022 60.4411 66.0456C59.2391 68.5592 58.6231 71.5215 58.5931 74.9327C58.6231 78.1045 59.134 81.1117 60.1255 83.9544C61.1171 86.7671 62.7548 89.0562 65.0384 90.8216C67.3221 92.5571 70.432 93.4249 74.3683 93.4249Z" fill="white"/>
</svg>
