<svg width="150" height="150" viewBox="0 0 150 150" fill="none" xmlns="http://www.w3.org/2000/svg">
<path d="M131.25 50.7156C127.116 52.5469 122.669 53.7687 117.978 54.3469C122.747 51.5156 126.416 47 128.137 41.6656C123.675 44.2812 118.731 46.2031 113.472 47.2156C109.272 42.7625 103.281 40 96.6438 40C83.8938 40 73.5594 50.2437 73.5594 62.875C73.5594 64.6625 73.7687 66.4031 74.1625 68.0938C54.9813 67.1312 37.9687 58.0125 26.5875 44.175C24.5875 47.5563 23.4625 51.5156 23.4625 55.6938C23.4625 63.6344 27.5281 70.625 33.7281 74.7438C29.9437 74.6281 26.3812 73.575 23.2625 71.8875C23.2625 71.9563 23.2625 72.0594 23.2625 72.1563C23.2625 83.2531 31.2219 92.4938 41.7719 94.5969C39.8437 95.125 37.8062 95.4187 35.7062 95.4187C34.2156 95.4187 32.7625 95.25 31.3562 94.9969C34.2937 104.066 42.8156 110.694 52.9125 110.891C45.0125 117.016 35.0625 120.684 24.2437 120.684C22.375 120.684 20.5469 120.578 18.7406 120.359C28.9625 126.831 41.1 130.625 54.1281 130.625C96.5812 130.625 119.806 95.7625 119.806 65.5188C119.806 64.5281 119.775 63.5406 119.728 62.5656C124.259 59.3656 128.166 55.3281 131.25 50.7156Z" fill="#03A9F4"/>
</svg>
