<svg width="235" height="235" viewBox="0 0 235 235" fill="none" xmlns="http://www.w3.org/2000/svg">
<path d="M205.625 29.375H29.375V205.625H205.625V29.375Z" fill="#1976D2"/>
<path d="M134.586 107.708H69.653V123.688H92.9425V195.833H111.395V123.688H134.586V107.708Z" fill="white"/>
<path d="M191.887 127.703C191.887 127.703 183.138 121.867 173.249 121.867C163.359 121.867 159.8 126.567 159.8 131.59C159.8 144.554 195.936 143.257 195.936 169.347C195.936 209.537 140.838 191.711 140.838 191.711V172.431C140.838 172.431 151.374 180.372 164.01 180.372C176.647 180.372 176.167 172.108 176.167 170.972C176.167 158.982 140.354 158.982 140.354 132.403C140.354 96.2668 192.534 110.523 192.534 110.523L191.887 127.703Z" fill="white"/>
</svg>
