<svg width="150" height="150" viewBox="0 0 150 150" fill="none" xmlns="http://www.w3.org/2000/svg">
<path d="M75 15.625C59.2528 15.625 44.1505 21.8806 33.0155 33.0155C21.8806 44.1505 15.625 59.2528 15.625 75C15.625 90.7472 21.8806 105.849 33.0155 116.984C44.1505 128.119 59.2528 134.375 75 134.375C90.7472 134.375 105.849 128.119 116.984 116.984C128.119 105.849 134.375 90.7472 134.375 75C134.375 59.2528 128.119 44.1505 116.984 33.0155C105.849 21.8806 90.7472 15.625 75 15.625Z" fill="#039BE5"/>
<path d="M83.0375 90.7375H98.4031L100.816 75.1282H83.0344V66.5969C83.0344 60.1126 85.1531 54.3625 91.2188 54.3625H100.966V40.7407C99.2531 40.5094 95.6313 40.0032 88.7875 40.0032C74.4969 40.0032 66.1188 47.5501 66.1188 64.7438V75.1282H51.4281V90.7375H66.1188V133.641C69.0281 134.078 71.975 134.375 75 134.375C77.7344 134.375 80.4031 134.125 83.0375 133.769V90.7375Z" fill="white"/>
</svg>
