<svg width="150" height="150" viewBox="0 0 150 150" fill="none" xmlns="http://www.w3.org/2000/svg">
<path d="M75 15C41.865 15 15 41.865 15 75C15 103.115 34.36 126.64 60.46 133.15C60.18 132.34 60 131.4 60 130.235V119.98C57.565 119.98 53.485 119.98 52.46 119.98C48.355 119.98 44.705 118.215 42.935 114.935C40.97 111.29 40.63 105.715 35.76 102.305C34.315 101.17 35.415 99.875 37.08 100.05C40.155 100.92 42.705 103.03 45.105 106.16C47.495 109.295 48.62 110.005 53.085 110.005C55.25 110.005 58.49 109.88 61.54 109.4C63.18 105.235 66.015 101.4 69.48 99.59C49.5 97.535 39.965 87.595 39.965 74.1C39.965 68.29 42.44 62.67 46.645 57.935C45.265 53.235 43.53 43.65 47.175 40C56.165 40 61.6 45.83 62.905 47.405C67.385 45.87 72.305 45 77.475 45C82.655 45 87.595 45.87 92.085 47.415C93.375 45.85 98.815 40 107.825 40C111.485 43.655 109.73 53.28 108.335 57.97C112.515 62.695 114.975 68.3 114.975 74.1C114.975 87.585 105.455 97.52 85.505 99.585C90.995 102.45 95 110.5 95 116.565V130.235C95 130.755 94.885 131.13 94.825 131.575C118.205 123.38 135 101.18 135 75C135 41.865 108.135 15 75 15Z" fill="black"/>
</svg>
