<svg width="150" height="150" viewBox="0 0 150 150" fill="none" xmlns="http://www.w3.org/2000/svg">
<path d="M75 12.5C58.424 12.5 42.5269 19.0848 30.8058 30.8058C19.0848 42.5269 12.5 58.424 12.5 75C12.5 91.576 19.0848 107.473 30.8058 119.194C42.5269 130.915 58.424 137.5 75 137.5C91.576 137.5 107.473 130.915 119.194 119.194C130.915 107.473 137.5 91.576 137.5 75C137.5 58.424 130.915 42.5269 119.194 30.8058C107.473 19.0848 91.576 12.5 75 12.5V12.5Z" fill="#0288D1"/>
<path d="M43.75 59.375H56.25V106.25H43.75V59.375ZM49.9625 53.125H49.8937C46.1625 53.125 43.75 50.3437 43.75 46.8719C43.75 43.325 46.2375 40.625 50.0344 40.625C53.8375 40.625 56.1781 43.325 56.25 46.8719C56.25 50.3437 53.8375 53.125 49.9625 53.125ZM109.375 76.5625C109.375 67.0687 101.681 59.375 92.1875 59.375C86.3688 59.375 81.2344 62.275 78.125 66.7V59.375H65.625V106.25H78.125V81.25C78.125 76.0719 82.3219 71.875 87.5 71.875C92.6781 71.875 96.875 76.0719 96.875 81.25V106.25H109.375C109.375 106.25 109.375 77.8781 109.375 76.5625Z" fill="white"/>
</svg>
