<svg width="235" height="235" viewBox="0 0 235 235" fill="none" xmlns="http://www.w3.org/2000/svg">
<path d="M162.407 18.7266C158.743 18.6034 154.907 19.2422 151.061 20.4891C143.369 22.9827 135.309 27.8423 127.038 34.5707C123.796 37.2076 120.525 40.2218 117.243 43.4199C114.033 40.303 110.829 37.3605 107.659 34.7818C99.3945 28.0588 91.3563 23.2066 83.6821 20.7186C76.0078 18.2306 68.372 18.1535 62.1006 21.7742C55.8292 25.395 52.0789 32.0416 50.3965 39.9317C48.7141 47.8217 48.8902 57.2178 50.5801 67.7369C51.1671 71.3907 52.0134 75.2239 52.9668 79.1289C49.3834 80.2149 45.9034 81.3568 42.6764 82.6172C32.9375 86.421 24.8792 90.9716 19.0112 96.3867C13.1431 101.802 9.35413 108.374 9.35413 115.591C9.35413 122.807 13.1431 129.37 19.0112 134.785C24.8792 140.2 32.9375 144.76 42.6764 148.564C46.127 149.912 49.8629 151.125 53.7196 152.273C52.3323 157.456 51.2084 162.486 50.4424 167.254C48.7512 177.782 48.5726 187.179 50.2588 195.087C51.9451 202.995 55.6973 209.679 61.9996 213.318C68.302 216.956 75.9721 216.867 83.6637 214.373C91.3553 211.88 99.4062 207.029 107.678 200.301C110.89 197.688 114.138 194.708 117.39 191.543C120.657 194.725 123.922 197.722 127.148 200.347C135.413 207.07 143.46 211.922 151.134 214.41C158.809 216.898 166.435 216.975 172.707 213.354C178.978 209.734 182.728 203.087 184.411 195.197C186.093 187.307 185.908 177.911 184.218 167.392C183.45 162.611 182.325 157.573 180.932 152.374C184.916 151.198 188.77 149.952 192.324 148.564C202.062 144.76 210.121 140.2 215.989 134.785C221.857 129.37 225.646 122.807 225.646 115.591C225.646 108.374 221.857 101.802 215.989 96.3867C210.121 90.9716 202.062 86.421 192.324 82.6172C189.05 81.3387 185.517 80.182 181.877 79.083C182.838 75.1541 183.692 71.2934 184.282 67.6176C185.973 57.09 186.152 47.6836 184.466 39.7756C182.78 31.8676 179.018 25.1926 172.716 21.5539C169.565 19.7346 166.072 18.8498 162.407 18.7266ZM161.976 28.2918C164.275 28.3547 166.237 28.9019 167.915 29.8707C171.271 31.8083 173.752 35.5794 175.075 41.7859C176.398 47.9924 176.353 56.3781 174.79 66.1029C174.256 69.4325 173.479 72.9614 172.596 76.577C162.985 74.2639 152.454 72.5465 141.23 71.5373C135.591 63.7248 129.795 56.618 123.953 50.3047C127.042 47.2898 130.11 44.4701 133.105 42.0338C140.746 35.8184 147.98 31.5892 154.017 29.632C157.035 28.6535 159.676 28.2289 161.976 28.2918ZM72.7858 28.3193C75.0986 28.2548 77.745 28.6782 80.7721 29.6596C86.8262 31.6224 94.0726 35.8497 101.72 42.0705C104.654 44.4574 107.656 47.2156 110.68 50.1578C104.796 56.5212 98.9593 63.7024 93.284 71.5832C82.0996 72.611 71.6057 74.3447 62.0364 76.6688C61.1596 73.0704 60.3933 69.5558 59.8608 66.2406C58.2971 56.5073 58.2581 48.1113 59.5854 41.8869C60.9126 35.6625 63.4135 31.8721 66.8006 29.9166C68.4941 28.9389 70.4729 28.3839 72.7858 28.3193ZM117.39 57.0701C121.218 61.2362 125.049 65.7967 128.846 70.702C125.114 70.5464 121.337 70.4541 117.5 70.4541C113.587 70.4541 109.738 70.5494 105.934 70.7111C109.733 65.8014 113.56 61.2398 117.39 57.0701ZM117.5 79.9459C123.892 79.9459 130.121 80.2086 136.181 80.6527C140.35 86.6413 144.425 92.9945 148.307 99.719C151.718 105.628 154.805 111.527 157.615 117.353C154.776 123.256 151.637 129.236 148.179 135.226C145.134 140.499 141.955 145.507 138.723 150.336C131.879 150.908 124.786 151.226 117.5 151.226C110.038 151.226 102.786 150.889 95.7901 150.29C92.6123 145.531 89.4868 140.589 86.491 135.4C83.0405 129.424 79.9168 123.465 77.0819 117.573C79.9287 111.649 83.0664 105.647 86.5369 99.6363C90.399 92.9471 94.4616 86.6307 98.6082 80.6711C104.733 80.2169 111.035 79.9459 117.5 79.9459ZM148.289 81.8277C156.033 82.7944 163.305 84.1373 170.072 85.7475C168.063 92.3329 165.589 99.2114 162.591 106.31C160.644 102.557 158.628 98.7921 156.449 95.019C153.811 90.449 151.068 86.085 148.289 81.8277ZM86.2156 81.9012C83.4939 86.081 80.8158 90.3555 78.2293 94.8354C76.023 98.6569 73.965 102.473 71.9963 106.273C69.024 99.2174 66.5645 92.3779 64.5699 85.8301C71.2896 84.2163 78.5218 82.8789 86.2156 81.9012ZM179.371 88.2443C182.703 89.2524 185.921 90.3045 188.872 91.4572C197.85 94.9637 204.951 99.1159 209.554 103.363C214.157 107.611 216.154 111.661 216.154 115.591C216.154 119.52 214.157 123.571 209.554 127.818C204.951 132.065 197.85 136.218 188.872 139.724C185.592 141.005 181.989 142.167 178.242 143.267C175.569 135.001 172.158 126.377 168.098 117.573C172.766 107.466 176.537 97.611 179.371 88.2443ZM55.4729 88.2902C58.2744 97.5631 61.997 107.321 66.5987 117.326C62.5122 126.181 59.0841 134.854 56.4 143.166C52.7855 142.095 49.304 140.965 46.128 139.724C37.1502 136.218 30.0488 132.065 25.4461 127.818C20.8435 123.571 18.8459 119.52 18.8459 115.591C18.8459 111.661 20.8435 107.611 25.4461 103.363C30.0488 99.1159 37.1502 94.9637 46.128 91.4572C49.0341 90.3222 52.1978 89.2851 55.4729 88.2902ZM117.5 94C104.577 94 94 104.577 94 117.5C94 130.423 104.577 141 117.5 141C130.423 141 141 130.423 141 117.5C141 104.577 130.423 94 117.5 94ZM117.5 103.4C125.343 103.4 131.6 109.657 131.6 117.5C131.6 125.343 125.343 131.6 117.5 131.6C109.657 131.6 103.4 125.343 103.4 117.5C103.4 109.657 109.657 103.4 117.5 103.4ZM162.71 128.607C165.175 134.441 167.317 140.15 169.117 145.654C163.465 146.965 157.447 148.069 151.116 148.94C152.938 146.033 154.738 143.071 156.495 140.027C158.698 136.212 160.744 132.401 162.71 128.607ZM72.1065 128.617C74.0829 132.434 76.1413 136.261 78.3578 140.1C80.093 143.106 81.8649 146.04 83.6637 148.913C77.3518 148.038 71.3518 146.93 65.7174 145.617C67.5092 140.13 69.6528 134.433 72.1065 128.617ZM63.0094 154.742C71.5156 156.757 80.7353 158.305 90.5117 159.313C97.0393 168.755 103.836 177.234 110.68 184.649C107.62 187.633 104.587 190.433 101.619 192.847C93.9783 199.062 86.7354 203.282 80.6987 205.239C74.6619 207.197 70.1567 206.938 66.8006 205.001C63.4445 203.063 60.9731 199.292 59.6496 193.086C58.3262 186.879 58.3628 178.503 59.925 168.778C60.6338 164.366 61.6929 159.642 63.0094 154.742ZM171.835 154.779C173.161 159.706 174.225 164.452 174.937 168.888C176.501 178.621 176.54 187.008 175.213 193.232C173.885 199.457 171.394 203.256 168.007 205.212C164.62 207.167 160.08 207.432 154.026 205.469C147.972 203.506 140.725 199.27 133.078 193.049C130.089 190.617 127.035 187.804 123.953 184.796C130.842 177.353 137.689 168.828 144.259 159.332C154.06 158.33 163.305 156.791 171.835 154.779ZM102.776 160.277C107.602 160.54 112.491 160.718 117.5 160.718C122.343 160.718 127.074 160.551 131.747 160.305C126.97 166.749 122.101 172.608 117.252 177.884C112.406 172.597 107.546 166.728 102.776 160.277Z" fill="#61DAFB"/>
</svg>
