<svg width="235" height="235" viewBox="0 0 235 235" fill="none" xmlns="http://www.w3.org/2000/svg">
<g clip-path="url(#clip0_211_51)">
<path d="M232.684 97.1676C232.048 96.6682 226.099 92.2375 213.551 92.2375C210.237 92.2521 206.932 92.5312 203.667 93.0746C201.238 76.654 187.907 68.9382 187.29 68.5808L183.922 66.6616L181.704 69.8145C178.928 74.0543 176.475 78.4312 175.286 83.3417C173.038 92.7172 174.404 101.52 179.232 109.045C173.396 112.252 163.452 112.536 161.563 112.604H7.74522C3.70126 112.609 0.421055 115.835 0.396576 119.821C0.21543 133.201 2.1248 147.007 6.79053 159.57C12.1221 173.366 20.0582 183.53 30.3787 189.748C41.9426 196.734 60.7328 200.729 82.0346 200.729C91.6549 200.758 101.261 199.902 110.719 198.164C123.869 195.779 136.525 191.246 148.158 184.749C157.744 179.271 166.37 172.304 173.709 164.113C185.973 150.415 193.278 135.164 198.712 121.608C199.442 121.608 200.171 121.608 200.876 121.608C214.305 121.608 222.56 116.305 227.113 111.865C230.138 109.03 232.503 105.579 234.036 101.755L235 98.9741L232.684 97.1676Z" fill="#2395EC"/>
<path d="M39.1667 107.708H24.4792C21.7767 107.708 19.5833 105.515 19.5833 102.812V88.125C19.5833 85.4225 21.7767 83.2291 24.4792 83.2291H39.1667C41.8692 83.2291 44.0625 85.4225 44.0625 88.125V102.812C44.0625 105.515 41.8692 107.708 39.1667 107.708Z" fill="#2395EC"/>
<path d="M68.5417 107.708H53.8542C51.1517 107.708 48.9583 105.515 48.9583 102.812V88.125C48.9583 85.4225 51.1517 83.2291 53.8542 83.2291H68.5417C71.2442 83.2291 73.4375 85.4225 73.4375 88.125V102.812C73.4375 105.515 71.2442 107.708 68.5417 107.708Z" fill="#2395EC"/>
<path d="M97.9167 107.708H83.2292C80.5267 107.708 78.3333 105.515 78.3333 102.812V88.125C78.3333 85.4225 80.5267 83.2291 83.2292 83.2291H97.9167C100.619 83.2291 102.813 85.4225 102.813 88.125V102.812C102.813 105.515 100.619 107.708 97.9167 107.708Z" fill="#2395EC"/>
<path d="M127.292 107.708H112.604C109.902 107.708 107.708 105.515 107.708 102.812V88.125C107.708 85.4225 109.902 83.2291 112.604 83.2291H127.292C129.994 83.2291 132.188 85.4225 132.188 88.125V102.812C132.188 105.515 129.994 107.708 127.292 107.708Z" fill="#2395EC"/>
<path d="M68.5417 78.3333H53.8542C51.1517 78.3333 48.9583 76.14 48.9583 73.4375V58.75C48.9583 56.0475 51.1517 53.8541 53.8542 53.8541H68.5417C71.2442 53.8541 73.4375 56.0475 73.4375 58.75V73.4375C73.4375 76.14 71.2442 78.3333 68.5417 78.3333Z" fill="#2395EC"/>
<path d="M97.9167 78.3333H83.2292C80.5267 78.3333 78.3333 76.14 78.3333 73.4375V58.75C78.3333 56.0475 80.5267 53.8541 83.2292 53.8541H97.9167C100.619 53.8541 102.813 56.0475 102.813 58.75V73.4375C102.813 76.14 100.619 78.3333 97.9167 78.3333Z" fill="#2395EC"/>
<path d="M127.292 78.3333H112.604C109.902 78.3333 107.708 76.14 107.708 73.4375V58.75C107.708 56.0475 109.902 53.8541 112.604 53.8541H127.292C129.994 53.8541 132.188 56.0475 132.188 58.75V73.4375C132.188 76.14 129.994 78.3333 127.292 78.3333Z" fill="#2395EC"/>
<path d="M127.292 48.9583H112.604C109.902 48.9583 107.708 46.765 107.708 44.0625V29.375C107.708 26.6725 109.902 24.4791 112.604 24.4791H127.292C129.994 24.4791 132.188 26.6725 132.188 29.375V44.0625C132.188 46.765 129.994 48.9583 127.292 48.9583Z" fill="#2395EC"/>
<path d="M156.667 107.708H141.979C139.277 107.708 137.083 105.515 137.083 102.812V88.125C137.083 85.4225 139.277 83.2291 141.979 83.2291H156.667C159.369 83.2291 161.562 85.4225 161.562 88.125V102.812C161.562 105.515 159.369 107.708 156.667 107.708Z" fill="#2395EC"/>
</g>
<defs>
<clipPath id="clip0_211_51">
<rect width="235" height="235" fill="white"/>
</clipPath>
</defs>
</svg>
